HIERARCHY
ROOT hip
{
	OFFSET 0.000000 0.000000 0.000000
	CHANNELS 6 Xposition Yposition Zposition Xrotation Zrotation Yrotation 
	JOINT abdomen
	{
		OFFSET 0.000000 3.422050 0.000000
		CHANNELS 3 Xrotation Zrotation Yrotation 
		JOINT chest
		{
			OFFSET 0.000000 8.486693 -0.684411
			CHANNELS 3 Xrotation Zrotation Yrotation 
			JOINT neck
			{
				OFFSET 0.000000 10.266162 -0.273764
				CHANNELS 3 Xrotation Zrotation Yrotation 
				JOINT head
				{
					OFFSET 0.000000 3.148285 0.000000
					CHANNELS 3 Xrotation Zrotation Yrotation 
					End Site
					{
						OFFSET 0.000000 3.148289 0.000000
					}
				}
			}
			JOINT lCollar
			{
				OFFSET 3.422053 6.707223 -0.821293
				CHANNELS 3 Yrotation Zrotation Xrotation 
				JOINT lShldr
				{
					OFFSET 3.285171 0.000000 0.000000
					CHANNELS 3 Zrotation Yrotation Xrotation 
					JOINT lForeArm
					{
						OFFSET 10.129278 0.000000 0.000000
						CHANNELS 3 Yrotation Zrotation Xrotation 
						JOINT lHand
						{
							OFFSET 8.486692 0.000000 0.000000
							CHANNELS 3 Zrotation Yrotation Xrotation 
							End Site
							{
								OFFSET 4.106464 0.000000 0.000000
							}
						}
					}
				}
			}
			JOINT rCollar
			{
				OFFSET -3.558935 6.707223 -0.821293
				CHANNELS 3 Yrotation Zrotation Xrotation 
				JOINT rShldr
				{
					OFFSET -3.148289 0.000000 0.000000
					CHANNELS 3 Zrotation Yrotation Xrotation 
					JOINT rForeArm
					{
						OFFSET -10.266159 0.000000 0.000000
						CHANNELS 3 Yrotation Zrotation Xrotation 
						JOINT rHand
						{
							OFFSET -8.349810 0.000000 0.000000
							CHANNELS 3 Zrotation Yrotation Xrotation 
							End Site
							{
								OFFSET -4.106464 0.000000 0.000000
							}
						}
					}
				}
			}
		}
	}
	JOINT lThigh
	{
		OFFSET 5.338403 -1.642589 1.368821
		CHANNELS 3 Xrotation Zrotation Yrotation 
		JOINT lShin
		{
			OFFSET -2.053232 -20.121670 0.000000
			CHANNELS 3 Xrotation Zrotation Yrotation 
			JOINT lFoot
			{
				OFFSET 0.000000 -19.300380 -1.231939
				CHANNELS 3 Xrotation Yrotation Zrotation 
				End Site
				{
					OFFSET 0.000000 -2.463878 4.653993
				}
			}
		}
	}
	JOINT rThigh
	{
		OFFSET -5.338403 -1.642589 1.368821
		CHANNELS 3 Xrotation Zrotation Yrotation 
		JOINT rShin
		{
			OFFSET 2.053232 -20.121670 0.000000
			CHANNELS 3 Xrotation Zrotation Yrotation 
			JOINT rFoot
			{
				OFFSET 0.000000 -19.300380 -1.231939
				CHANNELS 3 Xrotation Yrotation Zrotation 
				End Site
				{
					OFFSET 0.000000 -2.463878 4.653993
				}
			}
		}
	}
}
MOTION
Frames: 8
Frame Time: 0.049954
0.000000 43.528500 0.000000 0.000000 0.000000 0.000000 0.000000 0.000000 0.000000 0.000000 0.000000 0.000000 0.000000 0.000000 0.000000 0.000000 0.000000 0.000000 0.000000 0.000000 0.000000 0.000000 0.000000 0.000000 0.000000 0.000000 0.000000 0.000000 0.000000 0.000000 0.000000 0.000000 0.000000 0.000000 0.000000 0.000000 0.000000 0.000000 0.000000 0.000000 0.000000 0.000000 0.000000 0.000000 0.000000 0.000000 0.000000 0.000000 0.000000 0.000000 0.000000 0.000000 0.000000 0.000000 0.000000 0.000000 0.000000 0.000000 0.000000 0.000000 
-24.002867 7.997272 6.995714 89.949715 88.004456 -178.040726 6.716090 -2.493389 -0.705205 43.610615 -0.812740 0.106119 15.996989 0.000000 0.000000 10.999558 0.000000 0.000000 -41.634491 1.276365 13.102964 -39.942600 42.777996 -2.988259 -99.414749 42.082260 4.885550 -0.600953 16.901825 -3.793415 27.561735 12.890072 14.927293 53.444912 -43.758381 -12.528692 79.668945 -4.121168 -1.006267 9.583759 8.436028 -5.073693 0.448874 5.594072 -1.240318 -3.086546 -1.423500 1.642543 21.801825 25.611347 -23.236620 -34.930634 -34.249523 -38.114975 72.325745 -39.297642 31.403210 22.845440 -24.531332 23.850824 
-24.002867 7.997272 6.995714 89.949715 88.004456 -178.040726 6.716090 -2.493389 -0.705205 42.763783 -0.815510 0.103638 15.332286 0.000000 0.000000 10.009327 0.000000 0.000000 -41.456535 0.746358 13.032978 -39.545059 42.562138 -2.746236 -97.533470 41.294605 3.670084 -0.879167 17.068409 -3.391898 27.172585 12.974969 15.088687 53.444908 -43.758377 -12.528690 79.668945 -4.121168 -1.006267 10.101173 8.109800 -4.725406 0.448874 5.594072 -1.240318 -3.086546 -1.423500 1.642543 21.801825 25.611343 -23.236620 -34.907539 -34.810604 -38.821957 72.325745 -39.297642 31.403210 22.655586 -24.091854 22.972166 
-24.002867 7.997272 6.995714 89.949715 88.004456 -178.040726 6.716090 -2.493389 -0.705205 41.916447 -0.818319 0.101197 14.666508 0.000000 0.000000 9.015445 0.000000 0.000000 -41.279213 0.215997 12.964629 -39.150093 42.345036 -2.507051 -95.693222 40.476086 2.501385 -1.156480 17.236904 -2.990760 26.782997 13.058803 15.250738 53.444923 -43.758381 -12.528696 79.668945 -4.121168 -1.006267 10.616357 7.780359 -4.380257 0.448874 5.594072 -1.240318 -3.086546 -1.423500 1.642543 21.801825 25.611347 -23.236620 -34.875755 -35.371780 -39.534561 72.325745 -39.297642 31.403210 22.473625 -23.649456 22.097458 
-24.002867 7.997272 6.995714 89.949715 88.004456 -178.040726 6.716090 -2.493389 -0.705205 41.068687 -0.821164 0.098796 13.999701 0.000000 0.000000 8.018040 0.000000 0.000000 -41.102459 -0.314689 12.897903 -38.757668 42.126698 -2.270692 -93.894211 39.628422 1.379623 -1.432868 17.407288 -2.590019 26.393000 13.141571 15.413447 53.444912 -43.758373 -12.528689 79.668945 -4.121168 -1.006267 11.129288 7.447762 -4.038272 0.448874 5.594071 -1.240318 -3.086546 -1.423500 1.642543 21.801825 25.611347 -23.236620 -34.835117 -35.932896 -40.252979 72.325745 -39.297642 31.403210 22.299547 -23.204317 21.226700 
-24.002867 7.997272 6.995714 89.949715 88.004501 -178.040771 6.716091 -2.493389 -0.705205 40.220600 -0.824046 0.096437 13.331905 0.000000 0.000000 7.017244 0.000000 0.000000 -40.926292 -0.845668 12.832799 -38.367767 41.907150 -2.037146 -92.136261 38.753281 0.304708 -1.708309 17.579540 -2.189697 26.002598 13.223265 15.576801 53.444916 -43.758381 -12.528691 79.668945 -4.121168 -1.006267 11.639947 7.112072 -3.699475 0.448874 5.594072 -1.240318 -3.086546 -1.423500 1.642543 21.801825 25.611347 -23.236620 -34.785423 -36.493797 -40.977375 72.325745 -39.297646 31.403210 22.133318 -22.756590 20.359877 
-24.002867 7.997272 6.995714 89.949715 88.004410 -178.040665 6.716090 -2.493389 -0.705205 39.372295 -0.826964 0.094120 12.663163 0.000000 0.000000 6.013196 0.000000 0.000000 -40.750656 -1.376907 12.769305 -37.980412 41.686440 -1.806398 -90.419075 37.852383 -0.723649 -1.982780 17.753647 -1.789812 25.611807 13.303878 15.740784 53.444912 -43.758373 -12.528693 79.668945 -4.121168 -1.006267 12.148317 6.773347 -3.363891 0.448874 5.594072 -1.240318 -3.086546 -1.423500 1.642543 21.801823 25.611347 -23.236620 -34.726444 -37.054298 -41.707905 72.325745 -39.297642 31.403210 21.974922 -22.306465 19.496998 
-24.002867 7.997272 6.995714 89.949715 88.004456 -178.040726 6.716090 -2.493389 -0.705205 38.523834 -0.829915 0.091847 11.993518 0.000000 0.000000 5.006034 0.000000 0.000000 -40.575569 -1.908377 12.707424 -37.595539 41.464554 -1.578422 -88.742188 36.927429 -1.705911 -2.256257 17.929585 -1.390385 25.220638 13.383404 15.905394 53.444923 -43.758381 -12.528696 79.668945 -4.121168 -1.006267 12.654385 6.431655 -3.031542 0.448874 5.594072 -1.240318 -3.086546 -1.423500 1.642543 21.801828 25.611345 -23.236622 -34.658001 -37.614258 -42.444778 72.325745 -39.297646 31.403210 21.824318 -21.854094 18.638039 
